HIERARCHY
ROOT Root
{
  OFFSET 0.0 0.0 0.0
  CHANNELS 6 Xposition Yposition Zposition Zrotation Yrotation Xrotation
  JOINT Hips
  {
    OFFSET 0.0 100.0 0.0
    CHANNELS 6 Xposition Yposition Zposition Zrotation Yrotation Xrotation
    JOINT Spine1
    {
      OFFSET 5.003913 -0.037094 -0.013727
      CHANNELS 3 Zrotation Yrotation Xrotation
      JOINT Spine2
      {
        OFFSET 7.125363 -1e-06 0.0
        CHANNELS 3 Zrotation Yrotation Xrotation
        JOINT Chest
        {
          OFFSET 7.594027 1e-06 0.0
          CHANNELS 3 Zrotation Yrotation Xrotation
          JOINT Neck1
          {
            OFFSET 26.313086 -0.460272 -0.181672
            CHANNELS 3 Zrotation Yrotation Xrotation
            JOINT Neck2
            {
              OFFSET 8.045911 0.0 0.0
              CHANNELS 3 Zrotation Yrotation Xrotation
              JOINT Head
              {
                OFFSET 6.432774 0.0 0.0
                CHANNELS 3 Zrotation Yrotation Xrotation
                JOINT HeadEnd
                {
                  OFFSET 16.169773 0.06451 0.00362
                  CHANNELS 3 Zrotation Yrotation Xrotation
                }
                JOINT Jaw
                {
                  OFFSET 0.108741 3.12938 0.002639
                  CHANNELS 3 Zrotation Yrotation Xrotation
                }
                JOINT LeftEye
                {
                  OFFSET 4.45173 8.166359 3.206392
                  CHANNELS 3 Zrotation Yrotation Xrotation
                }
                JOINT RightEye
                {
                  OFFSET 4.436895 8.135758 -3.222429
                  CHANNELS 3 Zrotation Yrotation Xrotation
                }
              }
            }
          }
          JOINT LeftShoulder
          {
            OFFSET 23.218927 5.195579 1.621656
            CHANNELS 3 Zrotation Yrotation Xrotation
            JOINT LeftArm
            {
              OFFSET 15.902118 2e-06 -2e-06
              CHANNELS 3 Zrotation Yrotation Xrotation
              JOINT LeftForeArm
              {
                OFFSET 28.739307 0.0 -1e-06
                CHANNELS 3 Zrotation Yrotation Xrotation
                JOINT LeftHand
                {
                  OFFSET 27.093981 -4e-06 0.0
                  CHANNELS 3 Zrotation Yrotation Xrotation
                  JOINT LeftHandThumb1
                  {
                    OFFSET 2.276781 3.380274 0.83384
                    CHANNELS 3 Zrotation Yrotation Xrotation
                    JOINT LeftHandThumb2
                    {
                      OFFSET 4.705309 -1e-06 -1e-06
                      CHANNELS 3 Zrotation Yrotation Xrotation
                      JOINT LeftHandThumb3
                      {
                        OFFSET 2.798515 0.0 3e-06
                        CHANNELS 3 Zrotation Yrotation Xrotation
                        JOINT LeftHandThumbEnd
                        {
                          OFFSET 3.180793 4e-06 -4e-06
                          CHANNELS 3 Zrotation Yrotation Xrotation
                        }
                      }
                    }
                  }
                  JOINT LeftHandIndex1
                  {
                    OFFSET 3.247786 2.352677 0.137192
                    CHANNELS 3 Zrotation Yrotation Xrotation
                    JOINT LeftHandIndex2
                    {
                      OFFSET 6.367095 1e-06 0.0
                      CHANNELS 3 Zrotation Yrotation Xrotation
                      JOINT LeftHandIndex3
                      {
                        OFFSET 3.662364 0.0 0.0
                        CHANNELS 3 Zrotation Yrotation Xrotation
                        JOINT LeftHandIndex4
                        {
                          OFFSET 2.329242 4e-06 -4e-06
                          CHANNELS 3 Zrotation Yrotation Xrotation
                          JOINT LeftHandIndexEnd
                          {
                            OFFSET 2.767823 1e-06 0.0
                            CHANNELS 3 Zrotation Yrotation Xrotation
                          }
                        }
                      }
                    }
                  }
                  JOINT LeftHandMiddle1
                  {
                    OFFSET 3.163612 0.945023 -0.406112
                    CHANNELS 3 Zrotation Yrotation Xrotation
                    JOINT LeftHandMiddle2
                    {
                      OFFSET 6.276789 3e-06 0.0
                      CHANNELS 3 Zrotation Yrotation Xrotation
                      JOINT LeftHandMiddle3
                      {
                        OFFSET 4.35652 -1e-06 4e-06
                        CHANNELS 3 Zrotation Yrotation Xrotation
                        JOINT LeftHandMiddle4
                        {
                          OFFSET 2.996877 0.0 8e-06
                          CHANNELS 3 Zrotation Yrotation Xrotation
                          JOINT LeftHandMiddleEnd
                          {
                            OFFSET 2.323256 3e-06 -4e-06
                            CHANNELS 3 Zrotation Yrotation Xrotation
                          }
                        }
                      }
                    }
                  }
                  JOINT LeftHandRing1
                  {
                    OFFSET 2.882606 -0.309162 0.107445
                    CHANNELS 3 Zrotation Yrotation Xrotation
                    JOINT LeftHandRing2
                    {
                      OFFSET 6.033198 0.0 4e-06
                      CHANNELS 3 Zrotation Yrotation Xrotation
                      JOINT LeftHandRing3
                      {
                        OFFSET 4.350578 3e-06 0.0
                        CHANNELS 3 Zrotation Yrotation Xrotation
                        JOINT LeftHandRing4
                        {
                          OFFSET 2.651321 2e-06 -7e-06
                          CHANNELS 3 Zrotation Yrotation Xrotation
                          JOINT LeftHandRingEnd
                          {
                            OFFSET 1.937663 1e-06 -4e-06
                            CHANNELS 3 Zrotation Yrotation Xrotation
                          }
                        }
                      }
                    }
                  }
                  JOINT LeftHandPinky1
                  {
                    OFFSET 2.865315 -1.525436 0.575687
                    CHANNELS 3 Zrotation Yrotation Xrotation
                    JOINT LeftHandPinky2
                    {
                      OFFSET 5.54936 1e-06 -8e-06
                      CHANNELS 3 Zrotation Yrotation Xrotation
                      JOINT LeftHandPinky3
                      {
                        OFFSET 3.070974 0.0 -4e-06
                        CHANNELS 3 Zrotation Yrotation Xrotation
                        JOINT LeftHandPinky4
                        {
                          OFFSET 1.549672 1e-06 0.0
                          CHANNELS 3 Zrotation Yrotation Xrotation
                          JOINT LeftHandPinkyEnd
                          {
                            OFFSET 1.952123 0.0 0.0
                            CHANNELS 3 Zrotation Yrotation Xrotation
                          }
                        }
                      }
                    }
                  }
                }
              }
            }
          }
          JOINT RightShoulder
          {
            OFFSET 23.161716 5.296122 -1.380114
            CHANNELS 3 Zrotation Yrotation Xrotation
            JOINT RightArm
            {
              OFFSET -16.027195 -2e-06 1.1e-05
              CHANNELS 3 Zrotation Yrotation Xrotation
              JOINT RightForeArm
              {
                OFFSET -28.736639 4e-06 2e-06
                CHANNELS 3 Zrotation Yrotation Xrotation
                JOINT RightHand
                {
                  OFFSET -27.133619 6e-06 0.0
                  CHANNELS 3 Zrotation Yrotation Xrotation
                  JOINT RightHandThumb1
                  {
                    OFFSET -2.274328 -3.351035 -0.83067
                    CHANNELS 3 Zrotation Yrotation Xrotation
                    JOINT RightHandThumb2
                    {
                      OFFSET -4.703594 -3e-06 2e-06
                      CHANNELS 3 Zrotation Yrotation Xrotation
                      JOINT RightHandThumb3
                      {
                        OFFSET -2.794935 -4e-06 -3e-06
                        CHANNELS 3 Zrotation Yrotation Xrotation
                        JOINT RightHandThumbEnd
                        {
                          OFFSET -3.183852 4e-06 1e-06
                          CHANNELS 3 Zrotation Yrotation Xrotation
                        }
                      }
                    }
                  }
                  JOINT RightHandIndex1
                  {
                    OFFSET -3.253496 -2.33755 -0.127667
                    CHANNELS 3 Zrotation Yrotation Xrotation
                    JOINT RightHandIndex2
                    {
                      OFFSET -6.344434 0.0 0.0
                      CHANNELS 3 Zrotation Yrotation Xrotation
                      JOINT RightHandIndex3
                      {
                        OFFSET -3.654871 0.0 -8e-06
                        CHANNELS 3 Zrotation Yrotation Xrotation
                        JOINT RightHandIndex4
                        {
                          OFFSET -2.327586 -1e-06 0.0
                          CHANNELS 3 Zrotation Yrotation Xrotation
                          JOINT RightHandIndexEnd
                          {
                            OFFSET -2.770001 3e-06 8e-06
                            CHANNELS 3 Zrotation Yrotation Xrotation
                          }
                        }
                      }
                    }
                  }
                  JOINT RightHandMiddle1
                  {
                    OFFSET -3.168223 -0.944764 0.411762
                    CHANNELS 3 Zrotation Yrotation Xrotation
                    JOINT RightHandMiddle2
                    {
                      OFFSET -6.266691 -1e-06 -4e-06
                      CHANNELS 3 Zrotation Yrotation Xrotation
                      JOINT RightHandMiddle3
                      {
                        OFFSET -4.348901 0.0 0.0
                        CHANNELS 3 Zrotation Yrotation Xrotation
                        JOINT RightHandMiddle4
                        {
                          OFFSET -3.00024 2e-06 -4e-06
                          CHANNELS 3 Zrotation Yrotation Xrotation
                          JOINT RightHandMiddleEnd
                          {
                            OFFSET -2.321477 -4e-06 -4e-06
                            CHANNELS 3 Zrotation Yrotation Xrotation
                          }
                        }
                      }
                    }
                  }
                  JOINT RightHandRing1
                  {
                    OFFSET -2.885654 0.293261 -0.119232
                    CHANNELS 3 Zrotation Yrotation Xrotation
                    JOINT RightHandRing2
                    {
                      OFFSET -6.032835 -1e-06 -4e-06
                      CHANNELS 3 Zrotation Yrotation Xrotation
                      JOINT RightHandRing3
                      {
                        OFFSET -4.33881 0.0 -4e-06
                        CHANNELS 3 Zrotation Yrotation Xrotation
                        JOINT RightHandRing4
                        {
                          OFFSET -2.654903 -4e-06 -4e-06
                          CHANNELS 3 Zrotation Yrotation Xrotation
                          JOINT RightHandRingEnd
                          {
                            OFFSET -1.935122 0.0 4e-06
                            CHANNELS 3 Zrotation Yrotation Xrotation
                          }
                        }
                      }
                    }
                  }
                  JOINT RightHandPinky1
                  {
                    OFFSET -2.866241 1.503904 -0.60527
                    CHANNELS 3 Zrotation Yrotation Xrotation
                    JOINT RightHandPinky2
                    {
                      OFFSET -5.553177 -2e-06 0.0
                      CHANNELS 3 Zrotation Yrotation Xrotation
                      JOINT RightHandPinky3
                      {
                        OFFSET -3.062664 -1e-06 -4e-06
                        CHANNELS 3 Zrotation Yrotation Xrotation
                        JOINT RightHandPinky4
                        {
                          OFFSET -1.546529 2e-06 4e-06
                          CHANNELS 3 Zrotation Yrotation Xrotation
                          JOINT RightHandPinkyEnd
                          {
                            OFFSET -1.952341 0.0 -4e-06
                            CHANNELS 3 Zrotation Yrotation Xrotation
                          }
                        }
                      }
                    }
                  }
                }
              }
            }
          }
        }
      }
    }
    JOINT LeftLeg
    {
      OFFSET -8.443107 2.567604 10.043214
      CHANNELS 3 Zrotation Yrotation Xrotation
      JOINT LeftShin
      {
        OFFSET 43.229198 1e-06 -1e-06
        CHANNELS 3 Zrotation Yrotation Xrotation
        JOINT LeftFoot
        {
          OFFSET 42.298611 1e-06 1e-06
          CHANNELS 3 Zrotation Yrotation Xrotation
          JOINT LeftToeBase
          {
            OFFSET 14.165858 1e-06 0.0
            CHANNELS 3 Zrotation Yrotation Xrotation
            JOINT LeftToeEnd
            {
              OFFSET 6.7141 -0.234461 0.0
              CHANNELS 3 Zrotation Yrotation Xrotation
            }
          }
        }
      }
    }
    JOINT RightLeg
    {
      OFFSET -8.303923 2.592729 -10.047278
      CHANNELS 3 Zrotation Yrotation Xrotation
      JOINT RightShin
      {
        OFFSET -43.369682 0.0 1e-06
        CHANNELS 3 Zrotation Yrotation Xrotation
        JOINT RightFoot
        {
          OFFSET -42.260784 4e-06 2e-06
          CHANNELS 3 Zrotation Yrotation Xrotation
          JOINT RightToeBase
          {
            OFFSET -14.222245 -2e-06 -1e-06
            CHANNELS 3 Zrotation Yrotation Xrotation
            JOINT RightToeEnd
            {
              OFFSET -6.660062 0.232574 -2e-06
              CHANNELS 3 Zrotation Yrotation Xrotation
            }
          }
        }
      }
    }
  }
}
MOTION
Frames: 5
Frame Time: 0.03333333333333333
0.0 0.0 0.0 0.0 -0.0 0.0 0.734927 48.926674 6.022878 89.525169 -64.268738 89.43338 10.428689 0.347358 -0.145804 -5.33589 -0.038897 0.291404 16.706165 1.920718 -1.317436 19.111832 5.420313 3.78851 -2.809511 -0.304389 0.740768 -22.303619 4.083229 -0.39979 6e-06 -0.0 0.0 -0.258112 0.011734 0.009427 -0.485086 0.192322 -0.058286 -0.527382 -0.161633 0.067259 -36.905281 -68.617096 38.614441 98.259499 -0.950818 -14.635333 5.211816 -1.188029 -0.012749 40.923424 84.762352 46.709961 17.636625 -26.322729 52.411182 -19.46666 -14.3956 29.410385 -2e-06 -8.774821 -2e-06 15.765635 -17.985245 6.290946 -0.609775 -1.795654 -3.889327 -4.807088 -11.04681 -2.93785 4e-06 -20.976021 -0.0 -5.01997 -25.03356 -4.031879 6e-06 -1e-06 -0.0 -10.634531 -5.686969 -3.565587 10.573274 -17.922951 -3.113901 2e-06 -13.821211 1e-06 -0.501778 -31.181505 -4.027014 -10.048436 -58.819206 6.248328 -13.982711 -7.150198 -2.875041 13.772727 -8.401491 -3.218242 0.347734 -34.211555 0.771654 -0.963028 -17.733372 2.621019 -0.0 1e-06 -0.0 -17.346413 -20.095217 -4.201779 21.757555 -1.638374 3.866426 1e-06 -6.338823 1e-06 -1.697588 -22.591745 -6.194005 0.0 -4e-06 -2e-06 142.379959 -70.794693 38.73595 95.114365 -6.117561 -24.299507 9.381368 -1.038649 -0.063985 48.260372 76.238625 49.209778 22.18211 -20.375895 49.933319 -16.701817 -16.74353 28.476532 -2e-06 -12.690601 -0.0 16.775171 -17.825977 2.224454 -0.105919 -1.513855 -4.275882 -5.039042 -5.61287 -2.953557 4e-06 -11.020526 -2e-06 -6.111297 -15.895332 -3.840471 1e-06 2e-06 0.0 -10.283369 -5.680287 -4.341838 11.028296 -11.302406 -2.372634 -1.384268 -14.23858 -6.320122 -0.625439 -26.924191 -3.8276 -4.356428 -49.510384 -4.076476 -13.708522 -7.363476 -3.720939 18.14115 -14.052739 -3.242676 7e-06 -18.787268 -2e-06 -0.429712 -8.456043 2.555504 0.0 -0.0 0.0 -15.923534 -20.094482 -5.473585 30.419218 -7.190826 1.735922 3e-06 -8.162926 -0.0 -1.8619 -22.861467 -6.167942 -0.0 -5e-06 -1e-06 114.42691 -3.888405 5.160989 102.637627 0.184902 0.320187 -36.984993 11.773968 -11.754565 -7.922907 1.316331 2.92811 -1.000001 1e-06 0.0 -65.431335 -0.217247 0.928177 108.350082 0.13961 0.060385 -63.811474 -4.216297 -7.015536 -11.157674 0.84755 1.763077 -1.0 -0.0 0.0 
0.0 0.0 0.0 0.0 -0.0 0.0 0.881127 48.894005 6.034455 89.250664 -64.34449 89.621704 10.362533 0.445279 -0.080767 -5.407547 -0.021924 0.312717 16.787575 1.948535 -1.239555 19.181898 5.332619 3.691638 -2.800931 -0.298477 0.671638 -22.130156 4.119866 -0.434493 6e-06 -0.0 0.0 -0.264727 -0.014574 0.007808 -0.473985 0.170824 -0.054484 -0.52236 -0.191101 0.059652 -36.697311 -68.715836 38.742504 98.463982 -0.635963 -15.092997 4.911426 -1.191049 -0.008541 46.510048 84.450272 51.931171 17.636627 -26.322733 52.41119 -19.46666 -14.395596 29.410389 -3e-06 -8.774821 -1e-06 15.63778 -18.052725 6.376518 -0.609776 -1.795653 -3.889327 -4.807089 -11.046809 -2.93785 4e-06 -20.976019 -0.0 -5.01997 -25.033556 -4.03188 6e-06 -1e-06 -0.0 -10.634533 -5.686969 -3.565587 10.573274 -17.922947 -3.1139 2e-06 -13.821209 1e-06 -0.501778 -31.181505 -4.027015 -10.046032 -58.944916 6.24428 -13.982712 -7.150197 -2.875041 13.772727 -8.40149 -3.218241 0.347733 -34.211544 0.771655 -0.963029 -17.733366 2.621019 -0.0 -1e-06 -0.0 -17.346415 -20.095215 -4.201782 21.757557 -1.638376 3.866427 1e-06 -6.338823 1e-06 -1.697589 -22.591745 -6.194006 -0.0 -4e-06 -2e-06 142.309616 -70.677879 39.029144 94.990997 -5.902697 -24.330082 9.500501 -0.943206 -0.052226 48.122868 76.015182 49.002434 22.182119 -20.375895 49.933315 -16.701813 -16.743528 28.476528 -2e-06 -12.6906 -1e-06 16.730579 -17.795338 2.255334 -0.10592 -1.513855 -4.275882 -5.039042 -5.612871 -2.953557 4e-06 -11.02052 -2e-06 -6.111297 -15.89533 -3.840471 1e-06 -0.0 -1e-06 -10.283371 -5.680286 -4.341839 11.028294 -11.302404 -2.372632 -1.384269 -14.238577 -6.320121 -0.625438 -26.924179 -3.827599 -4.36036 -49.622402 -3.995041 -13.708525 -7.363473 -3.72094 18.141148 -14.052738 -3.242674 6e-06 -18.787266 -1e-06 -0.429712 -8.456042 2.555504 -0.0 1e-06 -0.0 -15.923538 -20.094479 -5.473586 30.419214 -7.190824 1.735927 3e-06 -8.162922 -0.0 -1.861904 -22.861467 -6.16794 1e-06 -2e-06 -1e-06 114.338722 -3.903445 5.110365 102.700455 0.16362 0.340256 -36.969337 11.474592 -11.694051 -7.885929 1.372117 2.918684 -1.0 0.0 -0.0 -65.495827 -0.195167 0.987354 108.28817 0.163294 0.041064 -63.562218 -4.315852 -6.944624 -10.910634 0.831069 1.776296 -1.000003 -0.0 -0.0 
0.0 0.0 0.0 0.0 -0.0 0.0 1.001018 48.868191 6.018001 89.172432 -64.411957 89.676926 10.261266 0.502325 -0.017216 -5.469628 -0.000938 0.339954 16.875277 1.935963 -1.214633 19.272898 5.290853 3.55905 -2.794496 -0.332887 0.629975 -22.12295 4.136059 -0.466448 5e-06 -0.0 0.0 -0.262794 -0.040668 0.010075 -0.512274 0.147822 -0.062066 -0.551772 -0.219645 0.06905 -36.162773 -68.732437 38.431583 98.553055 -0.45392 -15.190689 4.764904 -1.174062 -0.005739 47.655247 84.445923 52.713329 17.636629 -26.322729 52.411201 -19.466656 -14.395598 29.410389 -1e-06 -8.774822 -3e-06 15.617704 -18.064779 6.383872 -0.609777 -1.795653 -3.889328 -4.807089 -11.046807 -2.93785 4e-06 -20.976015 -0.0 -5.01997 -25.033556 -4.031881 6e-06 0.0 -0.0 -10.634535 -5.68697 -3.565587 10.573274 -17.922947 -3.1139 3e-06 -13.821205 1e-06 -0.501777 -31.181498 -4.027014 -10.006149 -59.03278 6.223539 -13.982714 -7.150198 -2.875042 13.772729 -8.401489 -3.218241 0.347733 -34.211544 0.771655 -0.963029 -17.73337 2.62102 -0.0 -1e-06 0.0 -17.346418 -20.095215 -4.201783 21.757557 -1.638373 3.866429 1e-06 -6.338822 1e-06 -1.69759 -22.591743 -6.194006 -0.0 -4e-06 -2e-06 142.467072 -70.638878 39.08437 94.681641 -5.715608 -24.206156 9.734954 -0.895805 -0.049647 48.301594 75.970413 49.42078 22.182117 -20.375898 49.933331 -16.701817 -16.743528 28.47654 -1e-06 -12.690601 -1e-06 16.721987 -17.699837 2.287263 -0.10592 -1.513856 -4.275882 -5.039042 -5.612873 -2.953557 4e-06 -11.020528 -3e-06 -6.111299 -15.895334 -3.840472 -0.0 -0.0 0.0 -10.283372 -5.680291 -4.34184 11.028296 -11.302407 -2.372633 -1.384269 -14.238585 -6.320123 -0.625438 -26.924196 -3.827604 -4.331497 -49.632061 -3.94709 -13.708526 -7.363479 -3.72094 18.141151 -14.05274 -3.242676 6e-06 -18.787275 -2e-06 -0.429713 -8.456047 2.555504 -0.0 -0.0 0.0 -15.923536 -20.094492 -5.473586 30.419222 -7.190827 1.735925 2e-06 -8.162927 -0.0 -1.861903 -22.861479 -6.167944 0.0 -2e-06 -0.0 114.241272 -3.872606 5.057168 102.820427 0.181346 0.350952 -37.21315 11.262464 -11.708627 -7.986845 1.401367 2.90859 -0.999998 -0.0 -1e-06 -65.58094 -0.203718 1.13163 108.326782 0.193993 0.037298 -63.619892 -4.307807 -6.934656 -10.880882 0.818009 1.787402 -1.000001 0.0 0.0 
0.0 0.0 0.0 0.0 -0.0 0.0 1.081429 48.848637 5.959538 89.103851 -64.503914 89.749496 10.16431 0.535982 0.033856 -5.525171 0.017817 0.355258 16.932156 1.955674 -1.220644 19.323509 5.200765 3.409337 -2.784733 -0.345689 0.596408 -22.220184 4.156236 -0.489581 6e-06 -1e-06 0.0 -0.261927 -0.061659 0.012896 -0.565436 0.128691 -0.072772 -0.591716 -0.243018 0.08343 -35.782749 -68.71772 38.220657 98.61776 -0.320979 -15.351142 4.713789 -1.180064 -0.006407 49.530762 84.493584 54.427589 17.636635 -26.322737 52.411213 -19.466665 -14.395602 29.410395 -2e-06 -8.774824 -2e-06 15.580914 -18.03517 6.385714 -0.609776 -1.795653 -3.889328 -4.807091 -11.046809 -2.937851 5e-06 -20.976019 -1e-06 -5.019971 -25.033556 -4.031883 6e-06 -1e-06 -0.0 -10.634537 -5.686971 -3.565588 10.573277 -17.922951 -3.113901 2e-06 -13.821206 1e-06 -0.501777 -31.181501 -4.027016 -10.003433 -59.064644 6.226315 -13.982716 -7.150198 -2.875043 13.772731 -8.401491 -3.218242 0.347734 -34.211544 0.771655 -0.963028 -17.733366 2.621021 -0.0 -0.0 0.0 -17.346424 -20.095217 -4.201784 21.757566 -1.638375 3.86643 2e-06 -6.338824 1e-06 -1.697591 -22.591743 -6.194007 1e-06 -5e-06 -2e-06 142.68924 -70.573433 38.992443 94.364594 -5.618896 -24.000101 10.026177 -0.852262 -0.05047 48.429768 76.060303 49.810783 22.182116 -20.375891 49.933308 -16.701813 -16.743528 28.47653 -2e-06 -12.690599 -1e-06 16.750887 -17.650007 2.332248 -0.105919 -1.513855 -4.275881 -5.039041 -5.612871 -2.953556 4e-06 -11.020526 -2e-06 -6.111299 -15.895338 -3.840471 -0.0 -0.0 0.0 -10.283371 -5.680287 -4.341838 11.028296 -11.302404 -2.372633 -1.384268 -14.238583 -6.320122 -0.625437 -26.924191 -3.827601 -4.31219 -49.702377 -3.901312 -13.708525 -7.363475 -3.720939 18.141151 -14.052739 -3.242675 6e-06 -18.78727 -2e-06 -0.429712 -8.456044 2.555503 -0.0 -1e-06 0.0 -15.923536 -20.094482 -5.473583 30.419214 -7.190826 1.735925 3e-06 -8.162922 -0.0 -1.861903 -22.861469 -6.167942 1e-06 -4e-06 -1e-06 114.082138 -3.820314 5.048964 103.003212 0.208873 0.356522 -37.645061 11.167101 -11.769314 -8.216248 1.415026 2.897041 -0.999999 0.0 -0.0 -65.739952 -0.206676 1.273432 108.441704 0.256684 0.040432 -63.837109 -4.318757 -6.973936 -10.958953 0.81349 1.796026 -1.000002 -0.0 0.0 
0.0 0.0 0.0 0.0 -0.0 0.0 1.1339 48.849205 5.862343 89.028854 -64.593964 89.83625 10.104335 0.550478 0.067671 -5.569054 0.024711 0.365487 16.964371 1.999255 -1.245167 19.346918 5.082159 3.274144 -2.769304 -0.352166 0.572215 -22.284199 4.223323 -0.490504 6e-06 -1e-06 0.0 -0.263736 -0.091336 0.017181 -0.612297 0.097265 -0.077747 -0.625461 -0.272045 0.096424 -35.546558 -68.708092 38.109146 98.648537 -0.221794 -15.586697 4.695815 -1.203341 -0.006732 52.485546 84.517517 57.259995 17.636625 -26.322731 52.41119 -19.466661 -14.395596 29.410389 -0.0 -8.774821 -2e-06 15.511367 -18.006516 6.409071 -0.609777 -1.795654 -3.889327 -4.807087 -11.046811 -2.93785 4e-06 -20.976015 -1e-06 -5.019969 -25.03356 -4.03188 6e-06 -0.0 -0.0 -10.634533 -5.686971 -3.565587 10.573272 -17.922951 -3.113901 2e-06 -13.821209 1e-06 -0.501778 -31.181505 -4.027015 -10.060081 -59.074123 6.278824 -13.982712 -7.150198 -2.875041 13.772727 -8.401491 -3.218242 0.347733 -34.211552 0.771654 -0.963029 -17.73337 2.62102 -0.0 -0.0 -0.0 -17.346418 -20.095219 -4.20178 21.757557 -1.638374 3.866426 1e-06 -6.338824 1e-06 -1.697589 -22.591745 -6.194006 -0.0 -3e-06 -2e-06 142.878372 -70.484818 38.872364 94.116821 -5.560014 -23.85667 10.292339 -0.826307 -0.05053 48.501621 76.168228 50.055828 22.182112 -20.375898 49.933331 -16.701817 -16.74353 28.476538 -2e-06 -12.690601 -0.0 16.807615 -17.632959 2.374 -0.105919 -1.513855 -4.275882 -5.039042 -5.612873 -2.953557 4e-06 -11.020527 -2e-06 -6.111298 -15.895338 -3.840472 -1e-06 -0.0 -1e-06 -10.283371 -5.68029 -4.341839 11.028296 -11.302406 -2.372634 -1.384268 -14.238579 -6.320123 -0.625438 -26.924198 -3.827602 -4.299281 -49.785126 -3.882319 -13.708526 -7.363477 -3.720941 18.141153 -14.052739 -3.242676 6e-06 -18.787271 -1e-06 -0.429712 -8.456046 2.555504 -0.0 -1e-06 -0.0 -15.923536 -20.094486 -5.473587 30.419222 -7.190829 1.735924 2e-06 -8.162926 0.0 -1.861902 -22.861479 -6.167944 -1e-06 -2e-06 -1e-06 113.874825 -3.809642 5.163344 103.230942 0.23628 0.351595 -38.204075 11.260631 -11.864258 -8.511496 1.414142 2.891297 -1.000001 0.0 -0.0 -65.950951 -0.186173 1.3822 108.595634 0.30968 0.042134 -64.074661 -4.253834 -7.007363 -11.150254 0.811797 1.798871 -1.000002 0.0 0.0 
